PathFileType        4      (X/Y/Z)      C:\Users\pc\Desktop\IMUTRC\Sujet_08\Sujet_08_Tpose.trc         
DataRate	CameraRate	NumFrames	NumMarkers	Units	OrigDataRate	OrigDataStartFrame	OrigNumFrames
60.0	60.0	4	64	mm	60.0	21	163
Frame#	Time	pHipOrigin			pRightASI			pLeftASI			pRightCSI			pLeftCSI			pRightIschialTub			pLeftIschialTub			pSacrum			pL5SpinalProcess			pL3SpinalProcess			pT12SpinalProcess			pIJ			pT4SpinalProcess			pT8SpinalProcess			pPX			pC7SpinalProcess			pTopOfHead			pRightAuricularis			pLeftAuricularis			pBackOfHead			pRightAcromion			pLeftAcromion			pRightArmLatEpicondyle			pRightArmMedEpicondyle			pLeftArmLatEpicondyle			pLeftArmMedEpicondyle			pRightUlnarStyloid			pRightRadialStyloid			pRightOlecranon			pLeftUlnarStyloid			pLeftRadialStyloid			pLeftOlecranon			pRightTopOfHand			pRightPinky			pRightBallHand			pLeftTopOfHand			pLeftPinky			pLeftBallHand			pRightGreaterTrochanter			pRightKneeLatEpicondyle			pRightKneeMedEpicondyle			pRightPatella			pLeftGreaterTrochanter			pLeftKneeLatEpicondyle			pLeftKneeMedEpicondyle			pLeftPatella			pRightTibialTub			pRightLatMalleolus			pRightMedMalleolus			pLeftTibialTub			pLeftLatMalleolus			pLeftMedMalleolus			pRightHeelFoot			pRightFirstMetatarsal			pRightFifthMetatarsal			pRightPivotFoot			pRightHeelCenter			pRightToe			pLeftHeelFoot			pLeftFirstMetatarsal			pLeftFifthMetatarsal			pLeftPivotFoot			pLeftHeelCenter			pLeftToe			
		X1	Y1	Z1	X2	Y2	Z2	X3	Y3	Z3	X4	Y4	Z4	X5	Y5	Z5	X6	Y6	Z6	X7	Y7	Z7	X8	Y8	Z8	X9	Y9	Z9	X10	Y10	Z10	X11	Y11	Z11	X12	Y12	Z12	X13	Y13	Z13	X14	Y14	Z14	X15	Y15	Z15	X16	Y16	Z16	X17	Y17	Z17	X18	Y18	Z18	X19	Y19	Z19	X20	Y20	Z20	X21	Y21	Z21	X22	Y22	Z22	X23	Y23	Z23	X24	Y24	Z24	X25	Y25	Z25	X26	Y26	Z26	X27	Y27	Z27	X28	Y28	Z28	X29	Y29	Z29	X30	Y30	Z30	X31	Y31	Z31	X32	Y32	Z32	X33	Y33	Z33	X34	Y34	Z34	X35	Y35	Z35	X36	Y36	Z36	X37	Y37	Z37	X38	Y38	Z38	X39	Y39	Z39	X40	Y40	Z40	X41	Y41	Z41	X42	Y42	Z42	X43	Y43	Z43	X44	Y44	Z44	X45	Y45	Z45	X46	Y46	Z46	X47	Y47	Z47	X48	Y48	Z48	X49	Y49	Z49	X50	Y50	Z50	X51	Y51	Z51	X52	Y52	Z52	X53	Y53	Z53	X54	Y54	Z54	X55	Y55	Z55	X56	Y56	Z56	X57	Y57	Z57	X58	Y58	Z58	X59	Y59	Z59	X60	Y60	Z60	X61	Y61	Z61	X62	Y62	Z62	X63	Y63	Z63	X64	Y64	Z64	
21	0.333	2468.324381091371	911.9523700000001	-985.4752510777337	2534.244666883178	1011.80825	-855.7336708016027	2531.754947577562	1006.6377100000001	-1120.0655264098837	2490.132225455408	1076.43988	-880.042836409891	2488.001456383247	1072.07724	-1097.64590300888	2414.911537701107	857.1770600000001	-929.4303801451684	2413.7425959039883	854.9149500000001	-1038.1836356038734	2402.8903455869054	932.1497600000001	-985.2184524256555	2437.015742665401	1020.3719400000001	-986.3817868777801	2436.1186907507354	1130.89203	-987.2241259649621	2419.801485696225	1230.42475	-986.8010012326965	2522.3451457720676	1463.74495	-996.4202027500626	2387.208389868078	1414.46333	-985.595804268946	2399.8949620115754	1329.63431	-985.964783198332	2544.5571002658066	1348.70064	-997.4490010178408	2379.9192134248337	1468.10759	-984.4659722316702	2412.0880632886347	1718.07044	-998.2058964083257	2432.8296993269314	1626.93983	-928.583015602994	2409.870249594547	1619.99193	-1061.08665725553	2369.524680384219	1618.86088	-985.6700358321783	2417.6429175966246	1440.80072	-829.2217429159144	2388.6496522078974	1435.95335	-1144.9836784896684	2438.9478564194555	1419.63386	-563.2001708611499	2497.6196766308026	1402.18332	-570.3888892704607	2395.4514232947577	1409.77754	-1412.639709530596	2456.232189858869	1399.92121	-1409.0878071128568	2472.064634298706	1333.35063	-327.26921832123804	2467.449871014139	1383.11699	-313.6454037708044	2468.134714414133	1387.15647	-576.3059635140012	2349.6330129666494	1344.98432	-1643.908450457409	2337.900994532857	1395.07384	-1650.4138826498124	2430.0987654653127	1380.53172	-1404.8436826458687	2497.2966071324604	1316.22325	-130.14541542272335	2490.4623425830864	1293.44059	-220.49875465581536	2487.9559309441543	1330.92694	-287.78328139297474	2340.965538248303	1319.77799	-1837.4105562772515	2349.7736519182145	1301.19639	-1746.3387840755736	2356.988054721912	1341.75274	-1681.123563986183	2462.796425032063	887.06919	-824.3077859659674	2418.814612145526	492.65464000000003	-823.4648677230193	2423.9724991460953	485.86832000000004	-899.9962325097953	2464.5190647376294	487.32253000000003	-861.1656496491328	2459.854527612794	885.2918200000001	-1146.922938486205	2429.1973200599477	489.7462100000001	-1156.7056613871264	2436.9330949543755	481.18252000000007	-1080.6398508688462	2476.2052291054283	485.0604200000001	-1120.5098554003466	2473.877557225568	453.0677600000001	-857.5874871014424	2392.882716634853	84.18270000000004	-800.404966111139	2397.0280024564477	78.85059000000005	-860.453898603531	2484.4618001773097	448.22039000000007	-1125.2424097274175	2391.0639226757853	82.89007000000007	-1186.5763227267362	2396.996097724339	76.42691000000008	-1126.8143195800349	2357.761447967863	2.4236900000000516	-839.4962397156298	2515.8682088251194	1.938950000000052	-847.2906533662534	2502.359414457519	4.738150936100204E-14	-773.7987702901914	2530.171944025661	0.8079000000000494	-807.6947528128758	2394.2726602601906	4.6857900000000505	-832.5693575445515	2608.4951889714603	-0.6463199999999514	-793.2872251143283	2356.956958309852	7.067948202902318E-14	-1154.283538375848	2514.9481792997262	-0.64631999999993	-1144.7531772247048	2502.2833587814994	3.0700000000000744	-1218.1423389605504	2529.620308119451	1.2926300000000726	-1184.1196632222711	2393.568650164201	2.908420000000071	-1160.3881983228239	2608.200320614601	0.9694700000000734	-1197.8182946461402	
22	0.35	2468.4762166250375	911.9523700000001	-985.4199874629751	2534.2999304979367	1011.80825	-855.8855063352693	2531.754947577562	1006.6377100000001	-1120.0655264098837	2490.0769618406493	1076.43988	-879.8910008762242	2488.001456383247	1072.07724	-1097.64590300888	2415.0633732347737	857.0154800000001	-929.37511653041	2413.9496950524135	854.9149500000001	-1038.2802075227814	2403.042181120572	932.1497600000001	-985.1631888108969	2437.015742665401	1020.2103600000002	-986.3817868777801	2435.911595022512	1130.89203	-987.1275634429803	2419.801485696225	1230.42475	-986.8010012326965	2522.1380466236424	1463.74495	-996.3236308311547	2386.9460271048943	1414.30175	-985.3473968163714	2399.6878628631503	1329.47273	-985.8682112794239	2544.350001117381	1348.70064	-997.3524290989326	2379.5189704385925	1468.10759	-984.7835986096126	2412.751223245536	1717.90886	-1000.0279134153985	2429.916935780102	1627.58615	-928.6114864084134	2413.2664303635947	1619.34561	-1061.9139360373515	2369.3460460644883	1618.86088	-988.4862402772276	2417.380554833441	1440.80072	-828.97333546334	2388.3872894447136	1435.95335	-1144.7352710370935	2439.0996919531226	1419.79544	-563.1449072463912	2497.771502767543	1402.18332	-570.3336290759034	2395.1890733487016	1409.61596	-1412.3913080547459	2455.969827095685	1399.92121	-1408.8393996602817	2472.3683053660393	1333.67379	-327.158691091721	2467.9053776151386	1383.44015	-313.47961292652855	2468.2865499478	1387.31804	-576.2506998992426	2349.2188240667256	1344.82274	-1643.7153031993912	2337.638635189875	1394.91226	-1650.165484594164	2429.6845671684623	1380.37014	-1404.6505388080527	2497.752104336534	1316.5464	-129.97962799864902	2490.9178491840867	1293.76375	-220.3329638115396	2488.4114375451536	1331.2501	-287.6174905486991	2340.5513493483786	1319.61641	-1837.217409019234	2349.359453621364	1301.03481	-1746.1456402377576	2356.629123460021	1341.75274	-1681.0822650789596	2462.948260565729	887.06919	-824.2525223512088	2418.8698757602847	492.65464000000003	-823.6167032566859	2424.1243346797614	485.86832000000004	-899.9409688950367	2464.574328352388	487.32253000000003	-861.3174851827994	2459.9097912275524	885.2918200000001	-1147.0747740198717	2429.1973200599477	489.7462100000001	-1156.7056613871264	2436.988358569134	481.3441000000001	-1080.7916864025124	2476.260492720187	485.0604200000001	-1120.6616909340132	2473.877557225568	452.90618000000006	-857.5874871014424	2392.882716634853	84.18270000000004	-800.404966111139	2397.0280024564477	78.85059000000005	-860.453898603531	2484.309964643643	448.22039000000007	-1125.297673342176	2391.0639226757853	83.05165000000007	-1186.5763227267362	2396.996097724339	76.42691000000008	-1126.8143195800349	2357.7061843531046	2.2621100000000514	-839.3444041819632	2515.8682088251194	1.938950000000052	-847.2906533662534	2502.359414457519	4.738150936100204E-14	-773.7987702901914	2530.171944025661	0.8079000000000494	-807.6947528128758	2394.2726602601906	4.6857900000000505	-832.5693575445515	2608.4951889714603	-0.6463199999999514	-793.2872251143283	2356.956958309852	7.067948202902318E-14	-1154.283538375848	2514.9481792997262	-0.64631999999993	-1144.7531772247048	2502.2833587814994	3.0700000000000744	-1218.1423389605504	2529.620308119451	1.2926300000000726	-1184.1196632222711	2393.568650164201	2.908420000000071	-1160.3881983228239	2608.200320614601	0.9694700000000734	-1197.8182946461402	
23	0.367	2468.6833157734627	911.9523700000001	-985.5165593818834	2534.4517660316033	1011.96982	-855.8302427205107	2531.8102111923204	1006.7992900000002	-1120.2173619435503	2490.0769618406493	1076.2783	-879.8910008762242	2487.8496208495803	1072.23882	-1097.7011666236385	2415.270472383199	857.0154800000001	-929.471688449318	2414.1567942008387	854.9149500000001	-1038.3767794416895	2403.2492802689967	931.9881800000002	-985.259760729805	2437.1675781990675	1020.2103600000002	-986.3265232630216	2435.911595022512	1130.89203	-987.1275634429803	2419.5943865478	1230.42475	-986.7044293137888	2521.8756838604586	1463.74495	-996.0752233785802	2386.738937353395	1414.30175	-985.250821477262	2399.480763714725	1329.47273	-985.771639360516	2544.0876383541977	1348.70064	-997.1040216463579	2379.270562986018	1468.10759	-985.0459613727962	2413.718044872844	1717.74728	-1001.7394066131557	2427.21125856457	1628.07088	-928.736523156016	2416.759192448476	1618.53772	-1062.5341122505467	2369.471088788816	1619.02246	-991.1919046756321	2417.1734556850156	1440.9623	-828.876763544432	2387.9731005447898	1435.79177	-1144.5421237790763	2439.044428338364	1419.95702	-562.9930717127246	2497.7162391527845	1402.3449	-570.1817935422371	2394.7748750518513	1409.45438	-1412.1981642169299	2455.7074643325013	1399.75963	-1408.5909922077071	2472.6719764333725	1333.83537	-327.0481638622037	2468.209048682472	1383.60173	-313.3690856970115	2468.231286333041	1387.31804	-576.098864365576	2349.0117249183004	1344.66117	-1643.6187312804832	2337.2797005077828	1394.75068	-1650.1241762900145	2429.4222044052785	1380.37014	-1404.402131355478	2498.262871132091	1316.86956	-129.96566329111377	2491.37334638816	1293.92533	-220.1671763874654	2488.715108612487	1331.41168	-287.50696331918203	2340.1371510515282	1319.61641	-1837.024265181418	2349.000528336199	1300.87323	-1746.104328513407	2356.3667606968374	1341.59116	-1680.833857626385	2463.155359714154	887.06919	-824.3490942701168	2419.0217112939513	492.65464000000003	-823.5614396419273	2424.1243346797614	485.86832000000004	-899.9409688950367	2464.7261638860546	487.32253000000003	-861.2622215680408	2460.061626761219	885.2918200000001	-1147.0195104051131	2429.045484526281	489.7462100000001	-1156.760925001885	2436.988358569134	481.3441000000001	-1080.7916864025124	2476.1086571865208	485.0604200000001	-1120.7169545487718	2474.0846563739933	452.90618000000006	-857.6840590203506	2392.882716634853	84.18270000000004	-800.404966111139	2397.0280024564477	78.85059000000005	-860.453898603531	2484.309964643643	448.22039000000007	-1125.297673342176	2391.0639226757853	83.05165000000007	-1186.5763227267362	2396.996097724339	76.42691000000008	-1126.8143195800349	2357.7061843531046	2.2621100000000514	-839.3444041819632	2515.8682088251194	1.938950000000052	-847.2906533662534	2502.359414457519	4.738150936100204E-14	-773.7987702901914	2530.171944025661	0.6463200000000494	-807.6947528128758	2394.2726602601906	4.6857900000000505	-832.5693575445515	2608.4951889714603	-0.6463199999999514	-793.2872251143283	2356.956958309852	7.067948202902318E-14	-1154.283538375848	2514.9481792997262	-0.4847399999999299	-1144.7531772247048	2502.2833587814994	3.0700000000000744	-1218.1423389605504	2529.620308119451	1.2926300000000726	-1184.1196632222711	2393.568650164201	2.908420000000071	-1160.3881983228239	2608.200320614601	0.9694700000000734	-1197.8182946461402	
24	0.383	2468.8351513071298	911.9523700000001	-985.4612957671249	2534.4517660316033	1011.96982	-855.8302427205107	2531.8102111923204	1006.9608700000001	-1120.2173619435503	2489.9251263069827	1076.2783	-879.9462644909828	2487.794357234822	1072.23882	-1097.549331089972	2415.477571531624	856.8539000000001	-929.5682603682258	2414.3086297345053	854.7533700000001	-1038.3215158269309	2403.2492802689967	931.9881800000002	-985.259760729805	2437.015742665401	1020.2103600000002	-986.3817868777801	2435.7044958740867	1130.89203	-987.0309915240724	2419.3872873993746	1230.42475	-986.6078573948804	2521.5167491783673	1463.74495	-996.0339150744306	2386.3800026713034	1414.30175	-985.2095131731124	2399.1218290326333	1329.47273	-985.7303310563665	2543.8805392057725	1348.70064	-997.0074497274501	2378.7737540575936	1468.10759	-985.570674082036	2414.9332833496533	1717.5857	-1003.1885336275277	2424.146659484074	1628.39404	-928.820257576194	2420.7074517374313	1617.8914	-1062.9885010396674	2369.706652765936	1619.18403	-994.2012529584972	2416.8145210029243	1440.9623	-828.8354552402825	2387.614165862698	1435.63019	-1144.5008154749266	2439.19626387203	1420.1186	-562.9378080979661	2497.7162391527845	1402.50648	-570.1817935422371	2394.41594036976	1409.2928	-1412.1568559127807	2455.3485296504095	1399.75963	-1408.5496839035577	2472.9756475007057	1333.99695	-326.93763663268663	2468.5679739676375	1383.7633	-313.41039742136235	2468.231286333041	1387.47962	-576.098864365576	2348.5975266214496	1344.49959	-1643.4255874426667	2336.865502210933	1394.5891	-1649.9310324521985	2429.063269723187	1380.20856	-1404.3608230513287	2498.9254768815154	1317.03114	-129.89644436574613	2491.677017455493	1294.08691	-220.05664915794833	2489.0740338976525	1331.57326	-287.54827504353267	2339.5711172210113	1319.45483	-1836.8863849583604	2348.434497925883	1300.71165	-1745.9664576872756	2355.8007268663205	1341.42958	-1680.6959774033273	2463.307195247821	887.06919	-824.2938306553583	2419.173546827618	492.65464000000003	-823.5061760271689	2424.3314338281866	485.86832000000004	-900.0375408139447	2464.7261638860546	487.32253000000003	-861.2622215680408	2460.061626761219	885.2918200000001	-1147.0195104051131	2429.1007481410397	489.7462100000001	-1156.9127605355516	2436.8365230354675	481.3441000000001	-1080.846950017271	2476.1086571865208	485.0604200000001	-1120.7169545487718	2474.0846563739933	452.90618000000006	-857.6840590203506	2392.882716634853	84.02113000000004	-800.404966111139	2397.0280024564477	78.85059000000005	-860.453898603531	2484.309964643643	448.3819700000001	-1125.297673342176	2391.0639226757853	83.05165000000007	-1186.5763227267362	2396.996097724339	76.42691000000008	-1126.8143195800349	2357.7061843531046	2.2621100000000514	-839.3444041819632	2515.8682088251194	1.938950000000052	-847.2906533662534	2502.359414457519	4.738150936100204E-14	-773.7987702901914	2530.171944025661	0.6463200000000494	-807.6947528128758	2394.2726602601906	4.6857900000000505	-832.5693575445515	2608.4951889714603	-0.6463199999999514	-793.2872251143283	2356.956958309852	7.067948202902318E-14	-1154.283538375848	2514.9481792997262	-0.4847399999999299	-1144.7531772247048	2502.2833587814994	3.0700000000000744	-1218.1423389605504	2529.620308119451	1.2926300000000726	-1184.1196632222711	2393.568650164201	3.070000000000071	-1160.3881983228239	2608.200320614601	0.9694700000000734	-1197.8182946461402	
